<?xml version="1.0" standalone="no"?>
<!DOCTYPE svg PUBLIC "-//W3C//DTD SVG 20010904//EN"
 "http://www.w3.org/TR/2001/REC-SVG-20010904/DTD/svg10.dtd">
<svg version="1.0" xmlns="http://www.w3.org/2000/svg"
 width="16.000000pt" height="16.000000pt" viewBox="0 0 16.000000 16.000000"
 preserveAspectRatio="xMidYMid meet">

<g transform="translate(0.000000,16.000000) scale(0.100000,-0.100000)"
fill="#000000" stroke="none">
<path d="M60 135 c0 -8 7 -15 15 -15 8 0 15 7 15 15 0 8 -7 15 -15 15 -8 0
-15 -7 -15 -15z"/>
<path d="M30 95 c0 -8 7 -15 15 -15 9 0 15 -9 15 -25 0 -16 -6 -25 -15 -25 -8
0 -15 -7 -15 -15 0 -11 12 -15 45 -15 33 0 45 4 45 15 0 8 -7 15 -15 15 -11 0
-15 11 -15 40 0 38 -2 40 -30 40 -20 0 -30 -5 -30 -15z"/>
</g>
</svg>
